<svg xmlns="http://www.w3.org/2000/svg" xmlns:xlink="http://www.w3.org/1999/xlink" xmlns:s="https://github.com/nturley/netlistsvg" width="1382" height="489.5"><rect width="1382" height="489.5" fill="white"/>
  <style>svg {
    stroke:#000;
    fill:none;
  }
  text {
    fill:#000;
    stroke:none;
    font-size:10px;
    font-weight: bold;
    font-family: "Courier New", monospace;
  }
  .nodelabel {
    text-anchor: middle;
  }
  .inputPortLabel {
    text-anchor: end;
  }
  .splitjoinBody {
    fill:#000;
  }</style>
  <g s:type="generic" transform="translate(562,229.5)" s:width="30" s:height="40" id="cell_$auto$ff.cc:266:slice$14">
    <text x="15" y="-4" class="nodelabel cell_$auto$ff.cc:266:slice$14" s:attribute="ref">$adffe</text>
    <rect width="30" height="80" s:generic="body" class="cell_$auto$ff.cc:266:slice$14"/>
    <g transform="translate(0,10)" s:x="0" s:y="10" s:pid="in0" id="port_$auto$ff.cc:266:slice$14~ARST">
      <text x="-3" y="-4" class="inputPortLabel cell_$auto$ff.cc:266:slice$14">ARST</text>
    </g>
    <g transform="translate(0,30)" s:x="0" s:y="10" s:pid="in0" id="port_$auto$ff.cc:266:slice$14~CLK">
      <text x="-3" y="-4" class="inputPortLabel cell_$auto$ff.cc:266:slice$14">CLK</text>
    </g>
    <g transform="translate(0,50)" s:x="0" s:y="10" s:pid="in0" id="port_$auto$ff.cc:266:slice$14~D">
      <text x="-3" y="-4" class="inputPortLabel cell_$auto$ff.cc:266:slice$14">D</text>
    </g>
    <g transform="translate(0,70)" s:x="0" s:y="10" s:pid="in0" id="port_$auto$ff.cc:266:slice$14~EN">
      <text x="-3" y="-4" class="inputPortLabel cell_$auto$ff.cc:266:slice$14">EN</text>
    </g>
    <g transform="translate(30,10)" s:x="30" s:y="10" s:pid="out0" id="port_$auto$ff.cc:266:slice$14~Q">
      <text x="5" y="-4" style="fill:#000; stroke:none" class="cell_$auto$ff.cc:266:slice$14">Q</text>
    </g>
  </g>
  <g s:type="generic" transform="translate(244,330)" s:width="30" s:height="40" id="cell_$auto$opt_dff.cc:195:make_patterns_logic$16">
    <text x="15" y="-4" class="nodelabel cell_$auto$opt_dff.cc:195:make_patterns_logic$16" s:attribute="ref">$reduce_bool</text>
    <rect width="30" height="20" s:generic="body" class="cell_$auto$opt_dff.cc:195:make_patterns_logic$16"/>
    <g transform="translate(0,10)" s:x="0" s:y="10" s:pid="in0" id="port_$auto$opt_dff.cc:195:make_patterns_logic$16~A">
      <text x="-3" y="-4" class="inputPortLabel cell_$auto$opt_dff.cc:195:make_patterns_logic$16">A</text>
    </g>
    <g transform="translate(30,10)" s:x="30" s:y="10" s:pid="out0" id="port_$auto$opt_dff.cc:195:make_patterns_logic$16~Y">
      <text x="5" y="-4" style="fill:#000; stroke:none" class="cell_$auto$opt_dff.cc:195:make_patterns_logic$16">Y</text>
    </g>
  </g>
  <g s:type="mux" transform="translate(152,210)" s:width="20" s:height="40" id="cell_$procmux$4">
    <s:alias val="$pmux"/>
    <s:alias val="$mux"/>
    <s:alias val="$_MUX_"/>
    <path d="M0,0 L20,10 L20,30 L0,40 Z" class="cell_$procmux$4"/>
    <g s:x="0" s:y="10" s:pid="A"/>
    <g s:x="0" s:y="30" s:pid="B"/>
    <g s:x="10" s:y="35" s:pid="S"/>
    <g s:x="20" s:y="20" s:pid="Y"/>
  </g>
  <g s:type="mux" transform="translate(321,260)" s:width="20" s:height="40" id="cell_$procmux$7">
    <s:alias val="$pmux"/>
    <s:alias val="$mux"/>
    <s:alias val="$_MUX_"/>
    <path d="M0,0 L20,10 L20,30 L0,40 Z" class="cell_$procmux$7"/>
    <g s:x="0" s:y="10" s:pid="A"/>
    <g s:x="0" s:y="30" s:pid="B"/>
    <g s:x="10" s:y="35" s:pid="S"/>
    <g s:x="20" s:y="20" s:pid="Y"/>
  </g>
  <g s:type="generic" transform="translate(748,351)" s:width="30" s:height="40" id="cell_$shr$/home/runner/work/semicolab-ip-tile-precheck/semicolab-ip-tile-precheck/src/shift_reg_tile.v:31$3">
    <text x="15" y="-4" class="nodelabel cell_$shr$/home/runner/work/semicolab-ip-tile-precheck/semicolab-ip-tile-precheck/src/shift_reg_tile.v:31$3" s:attribute="ref">$shr</text>
    <rect width="30" height="40" s:generic="body" class="cell_$shr$/home/runner/work/semicolab-ip-tile-precheck/semicolab-ip-tile-precheck/src/shift_reg_tile.v:31$3"/>
    <g transform="translate(0,10)" s:x="0" s:y="10" s:pid="in0" id="port_$shr$/home/runner/work/semicolab-ip-tile-precheck/semicolab-ip-tile-precheck/src/shift_reg_tile.v:31$3~A">
      <text x="-3" y="-4" class="inputPortLabel cell_$shr$/home/runner/work/semicolab-ip-tile-precheck/semicolab-ip-tile-precheck/src/shift_reg_tile.v:31$3">A</text>
    </g>
    <g transform="translate(0,30)" s:x="0" s:y="10" s:pid="in0" id="port_$shr$/home/runner/work/semicolab-ip-tile-precheck/semicolab-ip-tile-precheck/src/shift_reg_tile.v:31$3~B">
      <text x="-3" y="-4" class="inputPortLabel cell_$shr$/home/runner/work/semicolab-ip-tile-precheck/semicolab-ip-tile-precheck/src/shift_reg_tile.v:31$3">B</text>
    </g>
    <g transform="translate(30,10)" s:x="30" s:y="10" s:pid="out0" id="port_$shr$/home/runner/work/semicolab-ip-tile-precheck/semicolab-ip-tile-precheck/src/shift_reg_tile.v:31$3~Y">
      <text x="5" y="-4" style="fill:#000; stroke:none" class="cell_$shr$/home/runner/work/semicolab-ip-tile-precheck/semicolab-ip-tile-precheck/src/shift_reg_tile.v:31$3">Y</text>
    </g>
  </g>
  <g s:type="inputExt" transform="translate(244,205)" s:width="30" s:height="20" id="cell_clk">
    <text x="15" y="-4" class="nodelabel cell_clk" s:attribute="ref">clk</text>
    <s:alias val="$_inputExt_"/>
    <path d="M0,0 L0,20 L15,20 L30,10 L15,0 Z" class="cell_clk"/>
    <g s:x="28" s:y="10" s:pid="Y"/>
  </g>
  <g s:type="inputExt" transform="translate(244,140)" s:width="30" s:height="20" id="cell_arst_n">
    <text x="15" y="-4" class="nodelabel cell_arst_n" s:attribute="ref">arst_n</text>
    <s:alias val="$_inputExt_"/>
    <path d="M0,0 L0,20 L15,20 L30,10 L15,0 Z" class="cell_arst_n"/>
    <g s:x="28" s:y="10" s:pid="Y"/>
  </g>
  <g s:type="inputExt" transform="translate(12,428)" s:width="30" s:height="20" id="cell_csr_in">
    <text x="15" y="-4" class="nodelabel cell_csr_in" s:attribute="ref">csr_in</text>
    <s:alias val="$_inputExt_"/>
    <path d="M0,0 L0,20 L15,20 L30,10 L15,0 Z" class="cell_csr_in"/>
    <g s:x="28" s:y="10" s:pid="Y"/>
  </g>
  <g s:type="inputExt" transform="translate(142,280)" s:width="30" s:height="20" id="cell_data_reg_a">
    <text x="15" y="-4" class="nodelabel cell_data_reg_a" s:attribute="ref">data_reg_a</text>
    <s:alias val="$_inputExt_"/>
    <path d="M0,0 L0,20 L15,20 L30,10 L15,0 Z" class="cell_data_reg_a"/>
    <g s:x="28" s:y="10" s:pid="Y"/>
  </g>
  <g s:type="inputExt" transform="translate(244,398)" s:width="30" s:height="20" id="cell_data_reg_b">
    <text x="15" y="-4" class="nodelabel cell_data_reg_b" s:attribute="ref">data_reg_b</text>
    <s:alias val="$_inputExt_"/>
    <path d="M0,0 L0,20 L15,20 L30,10 L15,0 Z" class="cell_data_reg_b"/>
    <g s:x="28" s:y="10" s:pid="Y"/>
  </g>
  <g s:type="outputExt" transform="translate(748,230)" s:width="30" s:height="20" id="cell_data_reg_c">
    <text x="15" y="-4" class="nodelabel cell_data_reg_c" s:attribute="ref">data_reg_c</text>
    <s:alias val="$_outputExt_"/>
    <path d="M30,0 L30,20 L15,20 L0,10 L15,0 Z" class="cell_data_reg_c"/>
    <g s:x="0" s:y="10" s:pid="A"/>
  </g>
  <g s:type="outputExt" transform="translate(748,439)" s:width="30" s:height="20" id="cell_csr_out">
    <text x="15" y="-4" class="nodelabel cell_csr_out" s:attribute="ref">csr_out</text>
    <s:alias val="$_outputExt_"/>
    <path d="M30,0 L30,20 L15,20 L0,10 L15,0 Z" class="cell_csr_out"/>
    <g s:x="0" s:y="10" s:pid="A"/>
  </g>
  <g s:type="outputExt" transform="translate(77,22)" s:width="30" s:height="20" id="cell_csr_in_re">
    <text x="15" y="-4" class="nodelabel cell_csr_in_re" s:attribute="ref">csr_in_re</text>
    <s:alias val="$_outputExt_"/>
    <path d="M30,0 L30,20 L15,20 L0,10 L15,0 Z" class="cell_csr_in_re"/>
    <g s:x="0" s:y="10" s:pid="A"/>
  </g>
  <g s:type="outputExt" transform="translate(77,87)" s:width="30" s:height="20" id="cell_csr_out_we">
    <text x="15" y="-4" class="nodelabel cell_csr_out_we" s:attribute="ref">csr_out_we</text>
    <s:alias val="$_outputExt_"/>
    <path d="M30,0 L30,20 L15,20 L0,10 L15,0 Z" class="cell_csr_out_we"/>
    <g s:x="0" s:y="10" s:pid="A"/>
  </g>
  <g s:type="constant" transform="translate(244,449)" s:width="30" s:height="20" id="cell_00000000000000">
    <text x="15" y="-4" class="nodelabel cell_00000000000000" s:attribute="ref">0x0</text>
    <s:alias val="$_constant_"/>
    <rect width="30" height="20" class="cell_00000000000000"/>
    <g s:x="30" s:y="10" s:pid="Y"/>
  </g>
  <g s:type="constant" transform="translate(12,22)" s:width="30" s:height="20" id="cell_1">
    <text x="15" y="-4" class="nodelabel cell_1" s:attribute="ref">1</text>
    <s:alias val="$_constant_"/>
    <rect width="30" height="20" class="cell_1"/>
    <g s:x="30" s:y="10" s:pid="Y"/>
  </g>
  <g s:type="join" transform="translate(600.3333333333334,428.5)" s:width="4" s:height="40" id="cell_$join$,4,5,213,214,215,216,217,218,219,220,221,222,223,224,225,226,">
    <rect width="5" height="40" class="splitjoinBody" s:generic="body"/>
    <s:alias val="$_join_"/>
    <g s:x="5" s:y="20" s:pid="out"/>
    <g transform="translate(0,10)" s:x="0" s:y="10" s:pid="in0">
      <text x="-3" y="-4" class="inputPortLabel">0:1</text>
    </g>
    <g transform="translate(0,30)" s:x="0" s:y="10" s:pid="in0">
      <text x="-3" y="-4" class="inputPortLabel">2:15</text>
    </g>
  </g>
  <g s:type="split" transform="translate(83,417.5)" s:width="5" s:height="40" id="cell_$split$,4,5,6,7,8,9,10,11,12,13,14,15,16,17,18,19,">
    <rect width="5" height="60" class="splitjoinBody" s:generic="body"/>
    <s:alias val="$_split_"/>
    <g s:x="0" s:y="20" s:pid="in"/>
    <g transform="translate(4,10)" s:x="4" s:y="10" s:pid="out0">
      <text x="5" y="-4">0:1</text>
    </g>
    <g transform="translate(4,30)" s:x="4" s:y="10" s:pid="out0">
      <text x="5" y="-4">0</text>
    </g>
    <g transform="translate(4,50)" s:x="4" s:y="10" s:pid="out0">
      <text x="5" y="-4">1</text>
    </g>
  </g>
  <g s:type="split" transform="translate(587,371)" s:width="5" s:height="40" id="cell_$split$,52,53,54,55,56,57,58,59,60,61,62,63,64,65,66,67,68,69,70,71,72,73,74,75,76,77,78,79,80,81,82,83,">
    <rect width="5" height="20" class="splitjoinBody" s:generic="body"/>
    <s:alias val="$_split_"/>
    <g s:x="0" s:y="20" s:pid="in"/>
    <g transform="translate(4,10)" s:x="4" s:y="10" s:pid="out0">
      <text x="5" y="-4">0:4</text>
    </g>
  </g>
  <line x1="272" x2="522" y1="150" y2="150" class="net_3"/>
  <line x1="522" x2="522" y1="150" y2="240" class="net_3"/>
  <line x1="522" x2="562" y1="240" y2="240" class="net_3"/>
  <line x1="272" x2="512" y1="215" y2="215" class="net_2"/>
  <line x1="512" x2="512" y1="215" y2="260" class="net_2"/>
  <line x1="512" x2="562" y1="260" y2="260" class="net_2"/>
  <line x1="341" x2="562" y1="280" y2="280" class="net_116,117,118,119,120,121,122,123,124,125,126,127,128,129,130,131,132,133,134,135,136,137,138,139,140,141,142,143,144,145,146,147"/>
  <line x1="275" x2="512" y1="340.5" y2="340.5" class="net_148"/>
  <line x1="512" x2="512" y1="340.5" y2="300" class="net_148"/>
  <line x1="512" x2="562" y1="300" y2="300" class="net_148"/>
  <line x1="88" x2="212" y1="428" y2="428" class="net_4,5"/>
  <line x1="212" x2="212" y1="428" y2="340.5" class="net_4,5"/>
  <circle cx="212" cy="428" r="2" style="fill:#000" class="net_4,5"/>
  <line x1="212" x2="244" y1="340.5" y2="340.5" class="net_4,5"/>
  <line x1="88" x2="512" y1="428" y2="428" class="net_4,5"/>
  <line x1="512" x2="512" y1="428" y2="439" class="net_4,5"/>
  <line x1="512" x2="600.3333333333334" y1="439" y2="439" class="net_4,5"/>
  <line x1="779" x2="1370" y1="361.5" y2="361.5" class="net_149,150,151,152,153,154,155,156,157,158,159,160,161,162,163,164,165,166,167,168,169,170,171,172,173,174,175,176,177,178,179,180"/>
  <line x1="1370" x2="1370" y1="361.5" y2="119" class="net_149,150,151,152,153,154,155,156,157,158,159,160,161,162,163,164,165,166,167,168,169,170,171,172,173,174,175,176,177,178,179,180"/>
  <line x1="1370" x2="127" y1="119" y2="119" class="net_149,150,151,152,153,154,155,156,157,158,159,160,161,162,163,164,165,166,167,168,169,170,171,172,173,174,175,176,177,178,179,180"/>
  <line x1="127" x2="127" y1="119" y2="240" class="net_149,150,151,152,153,154,155,156,157,158,159,160,161,162,163,164,165,166,167,168,169,170,171,172,173,174,175,176,177,178,179,180"/>
  <line x1="127" x2="152" y1="240" y2="240" class="net_149,150,151,152,153,154,155,156,157,158,159,160,161,162,163,164,165,166,167,168,169,170,171,172,173,174,175,176,177,178,179,180"/>
  <line x1="88" x2="117" y1="448" y2="448" class="net_4"/>
  <line x1="117" x2="117" y1="448" y2="260" class="net_4"/>
  <line x1="117" x2="162" y1="260" y2="260" class="net_4"/>
  <line x1="162" x2="162" y1="260" y2="245" class="net_4"/>
  <line x1="172" x2="212" y1="230" y2="230" class="net_181,182,183,184,185,186,187,188,189,190,191,192,193,194,195,196,197,198,199,200,201,202,203,204,205,206,207,208,209,210,211,212"/>
  <line x1="212" x2="212" y1="230" y2="270" class="net_181,182,183,184,185,186,187,188,189,190,191,192,193,194,195,196,197,198,199,200,201,202,203,204,205,206,207,208,209,210,211,212"/>
  <line x1="212" x2="321" y1="270" y2="270" class="net_181,182,183,184,185,186,187,188,189,190,191,192,193,194,195,196,197,198,199,200,201,202,203,204,205,206,207,208,209,210,211,212"/>
  <line x1="170" x2="321" y1="290" y2="290" class="net_20,21,22,23,24,25,26,27,28,29,30,31,32,33,34,35,36,37,38,39,40,41,42,43,44,45,46,47,48,49,50,51"/>
  <line x1="88" x2="127" y1="468" y2="468" class="net_5"/>
  <line x1="127" x2="127" y1="468" y2="310" class="net_5"/>
  <line x1="127" x2="331" y1="310" y2="310" class="net_5"/>
  <line x1="331" x2="331" y1="310" y2="295" class="net_5"/>
  <line x1="593" x2="716" y1="240" y2="240" class="net_84,85,86,87,88,89,90,91,92,93,94,95,96,97,98,99,100,101,102,103,104,105,106,107,108,109,110,111,112,113,114,115"/>
  <line x1="716" x2="716" y1="240" y2="361.5" class="net_84,85,86,87,88,89,90,91,92,93,94,95,96,97,98,99,100,101,102,103,104,105,106,107,108,109,110,111,112,113,114,115"/>
  <circle cx="716" cy="240" r="2" style="fill:#000" class="net_84,85,86,87,88,89,90,91,92,93,94,95,96,97,98,99,100,101,102,103,104,105,106,107,108,109,110,111,112,113,114,115"/>
  <line x1="716" x2="748" y1="361.5" y2="361.5" class="net_84,85,86,87,88,89,90,91,92,93,94,95,96,97,98,99,100,101,102,103,104,105,106,107,108,109,110,111,112,113,114,115"/>
  <line x1="593" x2="748" y1="240" y2="240" class="net_84,85,86,87,88,89,90,91,92,93,94,95,96,97,98,99,100,101,102,103,104,105,106,107,108,109,110,111,112,113,114,115"/>
  <line x1="592" x2="748" y1="381.5" y2="381.5" class="net_52,53,54,55,56"/>
  <line x1="606.3333333333334" x2="748" y1="449" y2="449" class="net_4,5,213,214,215,216,217,218,219,220,221,222,223,224,225,226"/>
  <line x1="42" x2="77" y1="32" y2="32" class="net_227"/>
  <line x1="42" x2="52" y1="32" y2="32" class="net_227"/>
  <line x1="52" x2="52" y1="32" y2="97" class="net_227"/>
  <circle cx="52" cy="32" r="2" style="fill:#000" class="net_227"/>
  <line x1="52" x2="77" y1="97" y2="97" class="net_227"/>
  <line x1="274" x2="600.3333333333334" y1="459" y2="459" class="net_213,214,215,216,217,218,219,220,221,222,223,224,225,226"/>
  <line x1="40" x2="83" y1="438" y2="438" class="net_4,5,6,7,8,9,10,11,12,13,14,15,16,17,18,19"/>
  <line x1="272" x2="587.5" y1="408" y2="408" class="net_52,53,54,55,56,57,58,59,60,61,62,63,64,65,66,67,68,69,70,71,72,73,74,75,76,77,78,79,80,81,82,83"/>
  <line x1="587.5" x2="587.5" y1="408" y2="392" class="net_52,53,54,55,56,57,58,59,60,61,62,63,64,65,66,67,68,69,70,71,72,73,74,75,76,77,78,79,80,81,82,83"/>
</svg>
